<?xml version="1.0" encoding="utf-8"?>
<!-- Generator: Adobe Illustrator 27.8.0, SVG Export Plug-In . SVG Version: 6.00 Build 0)  -->
<svg version="1.1" xmlns="http://www.w3.org/2000/svg" xmlns:xlink="http://www.w3.org/1999/xlink" x="0px" y="0px"
	 viewBox="0 0 146 42.7" style="enable-background:new 0 0 146 42.7;" xml:space="preserve">
<style type="text/css">
	.st0{fill:none;stroke:#63B1BB;stroke-width:2;stroke-linecap:round;stroke-miterlimit:10;stroke-dasharray:1,7;}
	.st1{fill:#1B1E39;}
	.st2{fill:#1F2A44;}
	.st3{fill:#63B1BB;}
	.st4{fill:#FFFFFF;}
	.st5{fill:#1F2A44;stroke:#63B1BB;stroke-miterlimit:10;}
	.st6{fill:#63B1BB;stroke:#63B1BB;stroke-miterlimit:10;}
	.st7{fill:#FFFFFF;stroke:#63B1BB;stroke-miterlimit:10;}
</style>
<g id="Laag_1">
</g>
<g id="Laag_2">
	<g>
		<g>
			<g>
				<path class="st4" d="M59,32.5v10.1h-1.2V32.5H59z"/>
				<path class="st4" d="M70.3,42.7c-0.9,0-1.6-0.2-2.3-0.6c-0.7-0.4-1.2-1-1.6-1.8c-0.4-0.8-0.6-1.7-0.6-2.7c0-1.1,0.2-2,0.6-2.8
					c0.4-0.8,0.9-1.4,1.6-1.8c0.7-0.4,1.4-0.6,2.3-0.6c0.5,0,1,0.1,1.4,0.2c0.4,0.1,0.9,0.4,1.2,0.6c0.4,0.3,0.7,0.6,0.9,1
					c0.2,0.4,0.4,0.9,0.5,1.4h-1.2c-0.1-0.4-0.2-0.7-0.4-0.9c-0.2-0.3-0.4-0.5-0.6-0.7c-0.3-0.2-0.5-0.3-0.8-0.4
					c-0.3-0.1-0.6-0.1-1-0.1c-0.6,0-1.2,0.2-1.7,0.5c-0.5,0.3-0.9,0.8-1.2,1.4c-0.3,0.6-0.4,1.3-0.4,2.2c0,0.9,0.1,1.6,0.4,2.2
					c0.3,0.6,0.7,1.1,1.2,1.4c0.5,0.3,1,0.5,1.7,0.5c0.3,0,0.7,0,1-0.1c0.3-0.1,0.6-0.2,0.8-0.4c0.3-0.2,0.5-0.4,0.6-0.7
					c0.2-0.3,0.3-0.6,0.4-0.9h1.2c-0.1,0.5-0.3,1-0.5,1.4c-0.2,0.4-0.5,0.7-0.9,1c-0.4,0.3-0.8,0.5-1.2,0.6
					C71.3,42.6,70.8,42.7,70.3,42.7z"/>
				<path class="st4" d="M80.7,33.5v-1.1h7.6v1.1h-3.2v9h-1.2v-9H80.7z"/>
			</g>
		</g>
		<g>
			<g>
				<g>
					<g>
						<g>
							<path class="st4" d="M18.1,14.5c-0.5-0.9-1.2-1.5-2-2c-0.8-0.5-1.7-0.7-2.6-0.8v-0.2c0.8-0.2,1.6-0.5,2.2-0.9
								c0.7-0.4,1.2-1,1.6-1.7c0.4-0.7,0.6-1.5,0.6-2.5c0-1.2-0.3-2.2-0.9-3.2c-0.6-0.9-1.5-1.7-2.7-2.2C13,0.6,11.5,0.3,9.7,0.3H0
								v3.6h9.2c1.3,0,2.4,0.3,3.1,0.9c0.7,0.6,1,1.4,1,2.3c0,0.7-0.2,1.3-0.5,1.8c-0.4,0.5-0.9,0.9-1.5,1.2
								c-0.6,0.3-1.3,0.4-2.1,0.4H0v3.1h9.6c0.9,0,1.8,0.2,2.4,0.5c0.7,0.3,1.2,0.8,1.6,1.3c0.4,0.6,0.6,1.2,0.6,1.9
								c0,0.9-0.4,1.7-1.1,2.3c-0.7,0.6-1.9,0.9-3.6,0.9H0v3.6h10.2c1.9,0,3.5-0.3,4.8-0.8c1.3-0.6,2.2-1.3,2.9-2.3
								c0.6-1,0.9-2.1,0.9-3.3C18.8,16.4,18.6,15.4,18.1,14.5z"/>
						</g>
						<g>
							<g>
								<rect x="22.8" y="0.3" class="st4" width="16.4" height="3.6"/>
								<rect x="22.8" y="20.5" class="st4" width="16.5" height="3.6"/>
								<rect x="22.8" y="10.4" class="st4" width="15.6" height="3.6"/>
							</g>
						</g>
						<path class="st3" d="M95.1,0.3h4.6v15.5c0,1.7-0.4,3.2-1.3,4.5c-0.9,1.3-2,2.3-3.6,3c-1.5,0.7-3.3,1.1-5.4,1.1
							c-2.1,0-3.9-0.4-5.4-1.1c-1.5-0.7-2.7-1.7-3.6-3c-0.8-1.3-1.3-2.8-1.3-4.5V0.3h4.6v15.2c0,1,0.2,1.9,0.7,2.6
							c0.5,0.8,1.1,1.4,2,1.8c0.8,0.4,1.9,0.7,3,0.7c1.2,0,2.2-0.2,3-0.7c0.9-0.4,1.5-1,2-1.8s0.7-1.7,0.7-2.6V0.3z"/>
						<path class="st4" d="M118.1,6.9c-0.1-1-0.6-1.8-1.4-2.4c-0.9-0.6-2-0.8-3.3-0.8c-1,0-1.8,0.1-2.5,0.4
							c-0.7,0.3-1.2,0.6-1.6,1.1c-0.4,0.5-0.5,1-0.6,1.6c0,0.5,0.1,0.9,0.4,1.3c0.2,0.4,0.6,0.7,1,0.9c0.4,0.3,0.9,0.5,1.4,0.6
							c0.5,0.2,1,0.3,1.5,0.4l2.4,0.6c1,0.2,1.9,0.5,2.8,0.8c0.9,0.4,1.7,0.8,2.4,1.3c0.7,0.5,1.3,1.2,1.7,2
							c0.4,0.8,0.6,1.7,0.6,2.7c0,1.4-0.4,2.6-1.1,3.7c-0.8,1.1-1.8,1.9-3.3,2.5c-1.4,0.6-3.2,0.9-5.2,0.9c-2,0-3.7-0.3-5.1-0.9
							c-1.4-0.6-2.6-1.4-3.4-2.5c-0.8-1.1-1.2-2.4-1.3-4h4.5c0.1,0.8,0.3,1.5,0.8,2.1c0.5,0.6,1.1,1,1.9,1.2
							c0.8,0.3,1.6,0.4,2.6,0.4c1,0,1.9-0.1,2.6-0.4c0.8-0.3,1.3-0.7,1.8-1.2c0.4-0.5,0.6-1.1,0.7-1.8c0-0.6-0.2-1.1-0.6-1.5
							c-0.4-0.4-0.9-0.7-1.6-1c-0.7-0.3-1.5-0.5-2.4-0.7l-2.9-0.7c-2.1-0.5-3.7-1.3-4.9-2.3s-1.8-2.4-1.8-4.1c0-1.4,0.4-2.6,1.2-3.7
							c0.8-1.1,1.9-1.9,3.3-2.5c1.4-0.6,3-0.9,4.7-0.9c1.8,0,3.4,0.3,4.7,0.9c1.4,0.6,2.4,1.4,3.2,2.4c0.8,1,1.2,2.2,1.2,3.6H118.1z
							"/>
						<path class="st4" d="M125.8,3.9V0.3H146v3.6h-7.8v20.2h-4.5V3.9H125.8z"/>
					</g>
					<g>
						<polygon class="st4" points="61.2,0.3 56.8,0.3 52.3,16.2 51.8,17.8 51.8,17.8 50,24.1 53.8,24.1 58.8,7.4 59,7.4 62.4,18.6 
							64.2,11.3 						"/>
						<polygon class="st4" points="47,0.3 42.1,0.3 47.7,18.9 49.8,11 						"/>
						<polygon class="st4" points="75.7,0.3 70.9,0.3 64.7,24.1 68.6,24.1 						"/>
					</g>
				</g>
				<path class="st3" d="M89.5,0.4L89.5,0.4c0.9,0,1.6,0.7,1.6,1.6v8c0,0.9-0.7,1.6-1.6,1.6h0c-0.9,0-1.6-0.7-1.6-1.6V2
					C87.9,1.1,88.6,0.4,89.5,0.4z"/>
			</g>
		</g>
	</g>
</g>
</svg>
